<svg width="116" height="32" viewBox="0 0 116 32" fill="none" xmlns="http://www.w3.org/2000/svg">
<path d="M15.9826 3.66469C15.6858 3.66904 15.4028 3.79106 15.1959 4.00394C14.9889 4.21682 14.875 4.50314 14.879 4.8V5.92C14.8769 6.06841 14.9043 6.21576 14.9597 6.35349C15.015 6.49121 15.0972 6.61656 15.2014 6.72226C15.3056 6.82795 15.4298 6.91188 15.5667 6.96917C15.7036 7.02645 15.8506 7.05595 15.999 7.05595C16.1475 7.05595 16.2944 7.02645 16.4313 6.96917C16.5683 6.91188 16.6924 6.82795 16.7966 6.72226C16.9009 6.61656 16.983 6.49121 17.0384 6.35349C17.0937 6.21576 17.1211 6.06841 17.119 5.92V4.8C17.1211 4.65025 17.0931 4.50161 17.0367 4.36287C16.9803 4.22413 16.8966 4.09811 16.7907 3.99226C16.6847 3.88641 16.5586 3.80288 16.4198 3.74662C16.281 3.69035 16.1324 3.66249 15.9826 3.66469ZM6.12684 5.18828C5.942 5.18704 5.75973 5.23156 5.59628 5.31788C5.43283 5.40419 5.29328 5.52961 5.19008 5.68296C5.08688 5.8363 5.02322 6.0128 5.0048 6.19672C4.98638 6.38064 5.01375 6.56626 5.08449 6.73703L5.51215 7.81219C5.5652 7.95067 5.64522 8.07725 5.74757 8.18456C5.84992 8.29188 5.97256 8.37781 6.10838 8.43735C6.2442 8.4969 6.3905 8.52888 6.53877 8.53145C6.68705 8.53401 6.83436 8.50711 6.97216 8.45229C7.10996 8.39748 7.2355 8.31584 7.3415 8.21213C7.4475 8.10842 7.53185 7.98468 7.58966 7.84811C7.64746 7.71154 7.67757 7.56485 7.67824 7.41656C7.67891 7.26826 7.65013 7.1213 7.59355 6.98422L7.1659 5.90906C7.08546 5.69824 6.94322 5.51663 6.75781 5.38801C6.57241 5.2594 6.35248 5.18978 6.12684 5.18828ZM25.8395 5.18937C25.6195 5.19734 25.4067 5.26996 25.2278 5.39815C25.0488 5.52634 24.9116 5.70443 24.8332 5.91016L24.4056 6.98422C24.349 7.1213 24.3202 7.26826 24.3209 7.41656C24.3216 7.56486 24.3517 7.71155 24.4095 7.84812C24.4673 7.98469 24.5516 8.10843 24.6576 8.21214C24.7636 8.31586 24.8892 8.39749 25.027 8.45231C25.1648 8.50712 25.3121 8.53403 25.4604 8.53146C25.6086 8.5289 25.7549 8.49691 25.8908 8.43737C26.0266 8.37782 26.1492 8.29189 26.2516 8.18457C26.3539 8.07725 26.4339 7.95068 26.487 7.81219L26.9146 6.73812C26.9866 6.56476 27.0138 6.37608 26.9938 6.18944C26.9738 6.0028 26.9073 5.82418 26.8002 5.66999C26.6932 5.51579 26.5491 5.39097 26.3812 5.30699C26.2134 5.22301 26.0271 5.18257 25.8395 5.18937ZM15.999 9.28C8.14838 9.28 1.99902 12.2318 1.99902 16C1.99902 19.7682 8.14838 22.72 15.999 22.72C23.8502 22.72 30.0001 19.7682 30.0001 16C30.0001 12.2318 23.8502 9.28 15.999 9.28ZM15.999 12.08C22.9469 12.08 27.2001 14.6179 27.2001 16C27.2001 17.3821 22.9469 19.92 15.999 19.92C9.0511 19.92 4.79902 17.3821 4.79902 16C4.79902 14.6179 9.0511 12.08 15.999 12.08ZM25.4501 23.467C25.2652 23.4656 25.0828 23.51 24.9192 23.5962C24.7556 23.6825 24.6159 23.8079 24.5126 23.9612C24.4092 24.1146 24.3455 24.2912 24.327 24.4752C24.3085 24.6592 24.3359 24.8449 24.4067 25.0158L24.8332 26.0898C24.8875 26.2266 24.9682 26.3513 25.0707 26.4569C25.1732 26.5625 25.2955 26.6468 25.4305 26.7052C25.5656 26.7635 25.7109 26.7946 25.858 26.7968C26.0051 26.799 26.1512 26.7721 26.288 26.7178C26.4248 26.6635 26.5495 26.5828 26.655 26.4803C26.7606 26.3778 26.8449 26.2555 26.9032 26.1204C26.9615 25.9853 26.9926 25.8401 26.9948 25.6929C26.9969 25.5458 26.9701 25.3997 26.9157 25.263L26.4892 24.1889C26.4089 23.9779 26.2668 23.796 26.0813 23.6672C25.8959 23.5384 25.6759 23.4686 25.4501 23.467ZM6.51621 23.4681C6.29641 23.4763 6.08387 23.549 5.90512 23.6772C5.72637 23.8054 5.58932 23.9833 5.51105 24.1889L5.08449 25.263C5.02623 25.4004 4.99601 25.548 4.99562 25.6973C4.99523 25.8466 5.02467 25.9944 5.08222 26.1321C5.13976 26.2698 5.22425 26.3946 5.33071 26.4992C5.43718 26.6038 5.56347 26.6861 5.70218 26.7412C5.84089 26.7963 5.98921 26.8231 6.13844 26.8201C6.28766 26.8171 6.43477 26.7843 6.57113 26.7236C6.70749 26.6629 6.83035 26.5756 6.93249 26.4668C7.03463 26.3579 7.11398 26.2298 7.1659 26.0898L7.59246 25.0158C7.66422 24.8424 7.69126 24.6537 7.6711 24.4671C7.65094 24.2806 7.58422 24.102 7.47708 23.948C7.36994 23.7939 7.2258 23.6692 7.05791 23.5854C6.89002 23.5015 6.70375 23.4612 6.51621 23.4681ZM15.9826 24.9447C15.6858 24.949 15.4028 25.0711 15.1959 25.2839C14.9889 25.4968 14.875 25.7831 14.879 26.08V27.13C14.8769 27.2784 14.9043 27.4258 14.9597 27.5635C15.015 27.7012 15.0972 27.8266 15.2014 27.9323C15.3056 28.038 15.4298 28.1219 15.5667 28.1792C15.7036 28.2365 15.8506 28.2659 15.999 28.2659C16.1475 28.2659 16.2944 28.2365 16.4313 28.1792C16.5683 28.1219 16.6924 28.038 16.7966 27.9323C16.9009 27.8266 16.983 27.7012 17.0384 27.5635C17.0937 27.4258 17.1211 27.2784 17.119 27.13V26.08C17.1211 25.9302 17.0931 25.7816 17.0367 25.6429C16.9803 25.5041 16.8966 25.3781 16.7907 25.2723C16.6847 25.1664 16.5586 25.0829 16.4198 25.0266C16.281 24.9704 16.1324 24.9425 15.9826 24.9447Z" fill="#F8F4EF"/>
<text x="38" y="22" font-family="'Instrument Sans', ui-sans-serif, system-ui, -apple-system, 'Segoe UI', Roboto, Helvetica, Arial, sans-serif" font-size="22" font-weight="600" letter-spacing="-0.3" fill="#F8F4EF">Yara</text>
</svg>
